<?xml version="1.0" encoding="UTF-8" standalone="no"?>
<!-- Created with Inkscape (http://www.inkscape.org/) -->

<svg
   xmlns:dc="http://purl.org/dc/elements/1.1/"
   xmlns:cc="http://creativecommons.org/ns#"
   xmlns:rdf="http://www.w3.org/1999/02/22-rdf-syntax-ns#"
   xmlns:svg="http://www.w3.org/2000/svg"
   xmlns="http://www.w3.org/2000/svg"
   xmlns:sodipodi="http://sodipodi.sourceforge.net/DTD/sodipodi-0.dtd"
   xmlns:inkscape="http://www.inkscape.org/namespaces/inkscape"
   width="512"
   height="512"
   id="svg2"
   version="1.1"
   inkscape:version="0.91 r13725"
   sodipodi:docname="ic_launcher.svg"
   inkscape:export-filename="/Users/sgrimault/Desktop/ic_launcher.png"
   inkscape:export-xdpi="90"
   inkscape:export-ydpi="90">
  <defs
     id="defs4" />
  <sodipodi:namedview
     id="base"
     pagecolor="#ffffff"
     bordercolor="#666666"
     borderopacity="1.0"
     inkscape:pageopacity="0.0"
     inkscape:pageshadow="2"
     inkscape:zoom="0.76"
     inkscape:cx="-29.79507"
     inkscape:cy="239.47566"
     inkscape:document-units="px"
     inkscape:current-layer="layer1"
     showgrid="false"
     inkscape:window-width="1680"
     inkscape:window-height="927"
     inkscape:window-x="0"
     inkscape:window-y="0"
     inkscape:window-maximized="1">
    <inkscape:grid
       type="xygrid"
       id="grid3013"
       empspacing="5"
       visible="true"
       enabled="true"
       snapvisiblegridlinesonly="true" />
  </sodipodi:namedview>
  <metadata
     id="metadata7">
    <rdf:RDF>
      <cc:Work
         rdf:about="">
        <dc:format>image/svg+xml</dc:format>
        <dc:type
           rdf:resource="http://purl.org/dc/dcmitype/StillImage" />
        <dc:title></dc:title>
      </cc:Work>
    </rdf:RDF>
  </metadata>
  <g
     inkscape:label="Layer 1"
     inkscape:groupmode="layer"
     id="layer1"
     transform="translate(0,-540.36217)">
    <path
       id="path3017"
       style="fill:#000000;fill-rule:evenodd;stroke:none"
       d="m 273.6484,840.45484 c -15.88125,-15.88129 -31.7625,-31.76257 -47.64376,-47.64382 -15.90916,31.79046 -31.81833,63.58092 -47.7275,95.37134 31.79042,-15.90925 63.58085,-31.81835 95.37126,-47.72752 z m 25.51403,2.00033 75.06262,-150.12524 -150.12523,75.06262 -75.06263,150.12517 z M 242.16126,601.88431 C 119.08957,605.98134 23.82804,749.78545 72.804358,863.91224 107.17085,959.36247 224.73558,1018.8617 320.03519,980.66923 409.85347,949.92591 471.27828,847.76674 446.29678,754.0679 426.97869,664.9068 340.33448,594.48764 247.8857,601.77631 l -3.45565,0.0653 -2.26879,0.0429 z M 506,796.3621 C 506,934.43352 394.07119,1046.3623 256.00002,1046.3623 117.92881,1046.3623 5.9999995,934.43352 5.9999995,796.3621 5.9999995,658.29089 117.92881,546.36208 256.00002,546.36208 394.07119,546.36208 506,658.29089 506,796.3621 Z"
       inkscape:connector-curvature="0" />
  </g>
</svg>
